<svg width="15" height="15" viewBox="0 0 15 15" fill="none" xmlns="http://www.w3.org/2000/svg">
<path d="M8.37498 10.8875H6.80623C5.78123 10.8875 4.94998 10.025 4.94998 8.96252C4.94998 8.70627 5.16248 8.49377 5.41873 8.49377C5.67498 8.49377 5.88748 8.70627 5.88748 8.96252C5.88748 9.50627 6.29998 9.95002 6.80623 9.95002H8.37498C8.78123 9.95002 9.11873 9.58752 9.11873 9.15002C9.11873 8.60627 8.92498 8.50002 8.60623 8.38752L6.08748 7.50002C5.59998 7.33127 4.94373 6.96877 4.94373 5.85002C4.94373 4.88752 5.69998 4.11252 6.62498 4.11252H8.19373C9.21873 4.11252 10.05 4.97502 10.05 6.03752C10.05 6.29377 9.83748 6.50627 9.58123 6.50627C9.32498 6.50627 9.11248 6.29377 9.11248 6.03752C9.11248 5.49377 8.69998 5.05002 8.19373 5.05002H6.62498C6.21873 5.05002 5.88123 5.41252 5.88123 5.85002C5.88123 6.39377 6.07498 6.50002 6.39373 6.61252L8.91248 7.50002C9.39998 7.66877 10.0562 8.03127 10.0562 9.15002C10.05 10.1063 9.29998 10.8875 8.37498 10.8875Z" fill="#313638"/>
<path d="M7.5 11.7188C7.24375 11.7188 7.03125 11.5063 7.03125 11.25V3.75C7.03125 3.49375 7.24375 3.28125 7.5 3.28125C7.75625 3.28125 7.96875 3.49375 7.96875 3.75V11.25C7.96875 11.5063 7.75625 11.7188 7.5 11.7188Z" fill="#313638"/>
<mask id="path-3-inside-1_1562_2429" fill="white">
<path d="M9.37488 14.2188H5.62488C2.23113 14.2188 0.781128 12.7688 0.781128 9.375V5.625C0.781128 2.23125 2.23113 0.78125 5.62488 0.78125H9.37488C12.7686 0.78125 14.2186 2.23125 14.2186 5.625V9.375C14.2186 12.7688 12.7686 14.2188 9.37488 14.2188ZM5.62488 1.71875C2.74363 1.71875 1.71863 2.74375 1.71863 5.625V9.375C1.71863 12.2563 2.74363 13.2813 5.62488 13.2813H9.37488C12.2561 13.2813 13.2811 12.2563 13.2811 9.375V5.625C13.2811 2.74375 12.2561 1.71875 9.37488 1.71875H5.62488Z"/>
</mask>
<path d="M9.37488 14.2188H5.62488C2.23113 14.2188 0.781128 12.7688 0.781128 9.375V5.625C0.781128 2.23125 2.23113 0.78125 5.62488 0.78125H9.37488C12.7686 0.78125 14.2186 2.23125 14.2186 5.625V9.375C14.2186 12.7688 12.7686 14.2188 9.37488 14.2188ZM5.62488 1.71875C2.74363 1.71875 1.71863 2.74375 1.71863 5.625V9.375C1.71863 12.2563 2.74363 13.2813 5.62488 13.2813H9.37488C12.2561 13.2813 13.2811 12.2563 13.2811 9.375V5.625C13.2811 2.74375 12.2561 1.71875 9.37488 1.71875H5.62488Z" fill="#313638"/>
<path d="M9.37488 13.2188H5.62488V15.2188H9.37488V13.2188ZM5.62488 13.2188C4.04279 13.2188 3.15191 12.8769 2.63745 12.3624C2.12299 11.848 1.78113 10.9571 1.78113 9.375H-0.218872C-0.218872 11.1867 0.164262 12.7177 1.22324 13.7766C2.28222 14.8356 3.81321 15.2188 5.62488 15.2188V13.2188ZM1.78113 9.375V5.625H-0.218872V9.375H1.78113ZM1.78113 5.625C1.78113 4.04292 2.12299 3.15204 2.63745 2.63758C3.15191 2.12312 4.04279 1.78125 5.62488 1.78125V-0.21875C3.81321 -0.21875 2.28222 0.164384 1.22324 1.22336C0.164262 2.28234 -0.218872 3.81333 -0.218872 5.625H1.78113ZM5.62488 1.78125H9.37488V-0.21875H5.62488V1.78125ZM9.37488 1.78125C10.957 1.78125 11.8478 2.12312 12.3623 2.63758C12.8768 3.15204 13.2186 4.04292 13.2186 5.625H15.2186C15.2186 3.81333 14.8355 2.28234 13.7765 1.22336C12.7175 0.164384 11.1865 -0.21875 9.37488 -0.21875V1.78125ZM13.2186 5.625V9.375H15.2186V5.625H13.2186ZM13.2186 9.375C13.2186 10.9571 12.8768 11.848 12.3623 12.3624C11.8478 12.8769 10.957 13.2188 9.37488 13.2188V15.2188C11.1865 15.2188 12.7175 14.8356 13.7765 13.7766C14.8355 12.7177 15.2186 11.1867 15.2186 9.375H13.2186ZM5.62488 0.71875C4.1137 0.71875 2.79134 0.977142 1.88418 1.8843C0.97702 2.79146 0.718628 4.11382 0.718628 5.625H2.71863C2.71863 4.25493 2.97274 3.62417 3.29839 3.29851C3.62405 2.97286 4.25481 2.71875 5.62488 2.71875V0.71875ZM0.718628 5.625V9.375H2.71863V5.625H0.718628ZM0.718628 9.375C0.718628 10.8862 0.97702 12.2085 1.88418 13.1157C2.79134 14.0229 4.1137 14.2813 5.62488 14.2813V12.2813C4.25481 12.2813 3.62405 12.0271 3.29839 11.7015C2.97274 11.3758 2.71863 10.7451 2.71863 9.375H0.718628ZM5.62488 14.2813H9.37488V12.2813H5.62488V14.2813ZM9.37488 14.2813C10.8861 14.2813 12.2084 14.0229 13.1156 13.1157C14.0227 12.2085 14.2811 10.8862 14.2811 9.375H12.2811C12.2811 10.7451 12.027 11.3758 11.7014 11.7015C11.3757 12.0271 10.745 12.2813 9.37488 12.2813V14.2813ZM14.2811 9.375V5.625H12.2811V9.375H14.2811ZM14.2811 5.625C14.2811 4.11382 14.0227 2.79146 13.1156 1.8843C12.2084 0.977142 10.8861 0.71875 9.37488 0.71875V2.71875C10.745 2.71875 11.3757 2.97286 11.7014 3.29851C12.027 3.62417 12.2811 4.25493 12.2811 5.625H14.2811ZM9.37488 0.71875H5.62488V2.71875H9.37488V0.71875Z" fill="#313638" mask="url(#path-3-inside-1_1562_2429)"/>
</svg>
