<svg width="14" height="15" viewBox="0 0 14 15" fill="none" xmlns="http://www.w3.org/2000/svg">
<path d="M10.3018 13.7242C9.99259 13.7242 9.59592 13.625 9.10009 13.3334L7.35592 12.3009C7.17509 12.1959 6.82509 12.1959 6.65009 12.3009L4.90009 13.3334C3.86759 13.9459 3.26092 13.7009 2.98676 13.5025C2.71842 13.3042 2.29842 12.7967 2.57259 11.63L2.98676 9.83919C3.03342 9.65252 2.94009 9.33169 2.80009 9.19169L1.35342 7.74502C0.630089 7.02169 0.688422 6.40335 0.787589 6.10002C0.886756 5.79669 1.20176 5.26002 2.20509 5.09085L4.06592 4.78169C4.24092 4.75252 4.49176 4.56585 4.56759 4.40835L5.60009 2.34919C6.06676 1.41002 6.67926 1.27002 7.00009 1.27002C7.32092 1.27002 7.93342 1.41002 8.40009 2.34919L9.42675 4.40252C9.50842 4.56002 9.75926 4.74669 9.93426 4.77585L11.7951 5.08502C12.8043 5.25419 13.1193 5.79085 13.2126 6.09419C13.3059 6.39752 13.3643 7.01585 12.6468 7.73919L11.2001 9.19169C11.0601 9.33169 10.9726 9.64669 11.0134 9.83919L11.4276 11.63C11.6959 12.7967 11.2818 13.3042 11.0134 13.5025C10.8676 13.6075 10.6343 13.7242 10.3018 13.7242ZM7.00009 11.3442C7.28592 11.3442 7.57175 11.4142 7.79925 11.5484L9.54342 12.5809C10.0509 12.8842 10.3718 12.8842 10.4943 12.7967C10.6168 12.7092 10.7043 12.4 10.5759 11.8284L10.1618 10.0375C10.0509 9.55335 10.2318 8.92919 10.5818 8.57335L12.0284 7.12669C12.3143 6.84085 12.4426 6.56085 12.3843 6.36835C12.3201 6.17585 12.0518 6.01835 11.6551 5.95419L9.79426 5.64502C9.34509 5.56919 8.85509 5.20752 8.65092 4.79919L7.62425 2.74585C7.43759 2.37252 7.20426 2.15085 7.00009 2.15085C6.79592 2.15085 6.56259 2.37252 6.38175 2.74585L5.34926 4.79919C5.14509 5.20752 4.65509 5.56919 4.20592 5.64502L2.35092 5.95419C1.95426 6.01835 1.68592 6.17585 1.62176 6.36835C1.55759 6.56085 1.69176 6.84669 1.97759 7.12669L3.42426 8.57335C3.77426 8.92335 3.95509 9.55335 3.84426 10.0375L3.43009 11.8284C3.29592 12.4059 3.38926 12.7092 3.51176 12.7967C3.63426 12.8842 3.94926 12.8784 4.46259 12.5809L6.20676 11.5484C6.42842 11.4142 6.71426 11.3442 7.00009 11.3442Z" fill="#313638" stroke="#313638" stroke-width="0.5"/>
</svg>
